PathFileType	4	(X/Y/Z)	/Users/niels/Desktop/University/Third Semester/Perception and Action/Exam/Gymnastics Motion Tracking/Code for Gym Tracking/Analyzed Data/Webcam_Backflip/id1_1_baseline_Sports2D/id1_1_baseline_Sports2D_px_person00.trc
DataRate	CameraRate	NumFrames	NumMarkers	Units	OrigDataRate	OrigDataStartFrame	OrigNumFrames
29.872340425531917	29.872340425531917	11	22	m	29.872340425531917	58	235
Frame#	Time	Hip			RHip			RKnee			RAnkle			RBigToe			RSmallToe			RHeel			LHip			LKnee			LAnkle			LBigToe			LSmallToe			LHeel			Neck			Head			Nose			RShoulder			RElbow			RWrist			LShoulder			LElbow			LWrist		
		X1	Y1	Z1	X2	Y2	Z2	X3	Y3	Z3	X4	Y4	Z4	X5	Y5	Z5	X6	Y6	Z6	X7	Y7	Z7	X8	Y8	Z8	X9	Y9	Z9	X10	Y10	Z10	X11	Y11	Z11	X12	Y12	Z12	X13	Y13	Z13	X14	Y14	Z14	X15	Y15	Z15	X16	Y16	Z16	X17	Y17	Z17	X18	Y18	Z18	X19	Y19	Z19	X20	Y20	Z20	X21	Y21	Z21	X22	Y22	Z22
58	1.9415954415954417	0.9242923360663045	-0.6111565316851022	0.0	0.9220306689684107	-0.6117174442676111	0.0	0.9580543615583965	-0.7236919570477005	0.0	0.9525687226708681	-0.8383366832395621	0.0	0.9924491937468123	-0.8521435711955422	0.0	0.9838033933439734	-0.8542728920082211	0.0	0.9396392264146401	-0.8477373152850946	0.0	0.9275912840605538	-0.6120690281901161	0.0	0.9653544309804143	-0.7200951566057983	0.0	0.9586290022344913	-0.832858260592455	0.0	0.9945973169566991	-0.8454115642536731	0.0	0.9910965576635916	-0.8441222873850747	0.0	0.9404959329163162	-0.8480084565625041	0.0	1.0243843615032926	-0.501136761234247	0.0	1.0971204093460845	-0.47880428452285345	0.0	1.0693536025134256	-0.5096556083967915	0.0	1.0125513494411023	-0.4960684627512934	0.0	1.0156880769690484	-0.523656305923753	0.0	1.0600200246757006	-0.531166775331139	0.0	1.0190009677483198	-0.5020424626900136	0.0	1.0229218685261308	-0.5380817620581023	0.0	1.0598130104264019	-0.5510495296157554	0.0
59	1.9750712250712252	0.9263070489769334	-0.6550724546132963	0.0	0.9213249645329612	-0.6551927374443492	0.0	0.9621607798842188	-0.7625321805955753	0.0	0.957050324414439	-0.8710927967344944	0.0	0.9966337741509292	-0.8812308895437654	0.0	0.9870067975067692	-0.8827964533906777	0.0	0.9453352474755505	-0.8774576504765171	0.0	0.932679832411646	-0.6555646031427829	0.0	0.9764477307529509	-0.757495107319404	0.0	0.971479277852411	-0.8632195525235076	0.0	1.0016318496617325	-0.8739918254121881	0.0	1.0003105975131232	-0.8733630098906471	0.0	0.9539882114755632	-0.8784477631682647	0.0	1.0080596722135318	-0.5262143177403397	0.0	1.0771592008564084	-0.49105561556588023	0.0	1.0549867761867529	-0.5245839243431031	0.0	0.9936490405125175	-0.5245045089948006	0.0	1.0168109652348647	-0.5396258223324737	0.0	1.0689254675557458	-0.5238311622990695	0.0	1.0061727930549895	-0.5311047754449869	0.0	1.0296353974479953	-0.5532176774179999	0.0	1.0711777553954138	-0.5451372584437516	0.0
60	2.0085470085470085	0.9263139799014811	-0.6862946691844162	0.0	0.9184813438755075	-0.6861473136000444	0.0	0.9636900038751688	-0.7885459625275413	0.0	0.9562731404917296	-0.8923954231181158	0.0	0.9960011983233117	-0.9004674412212766	0.0	0.9855183754791774	-0.9014398384979239	0.0	0.9455659894977638	-0.8964132116787621	0.0	0.9361273867910078	-0.686603400137143	0.0	0.9850134075716324	-0.7817380123291546	0.0	0.9797823249208533	-0.8815227389805886	0.0	1.0059297593973864	-0.8928394193004969	0.0	1.0067183651031106	-0.8924078651282715	0.0	0.9639512538419551	-0.8973233742173217	0.0	0.9940322521965776	-0.5470944270248838	0.0	1.0601716523125573	-0.5028844451741661	0.0	1.0422349381666174	-0.5373755528144828	0.0	0.9769336803034481	-0.5477925686814877	0.0	1.0141852749190041	-0.5492300534141669	0.0	1.0688856780551053	-0.5149392004939891	0.0	0.9952036456586941	-0.5548746439091256	0.0	1.0312102184024503	-0.5617316854743859	0.0	1.0734321216261276	-0.5352949528901603	0.0
61	2.042022792022792	0.9229818512354121	-0.7023794518237302	0.0	0.9128388676394309	-0.7021277914532018	0.0	0.9640992808348697	-0.7990351318460569	0.0	0.9527248170850358	-0.9011167858163107	0.0	0.9930431413818598	-0.9088380125381015	0.0	0.9824634448115768	-0.9094742850926139	0.0	0.9425689008672875	-0.9044962016624887	0.0	0.9358124283364498	-0.7025703276081912	0.0	0.9906014881779803	-0.7902542047301082	0.0	0.9836907218745704	-0.8871129868759401	0.0	1.0091987460119476	-0.9001166388882771	0.0	1.011274334610445	-0.8994005130531141	0.0	0.9702856192804142	-0.9038415876456088	0.0	0.9825937618805306	-0.5601396572458538	0.0	1.047308757222966	-0.5108670482834954	0.0	1.0317593942710472	-0.5453218688227388	0.0	0.9634049997334166	-0.5619774895546579	0.0	1.0085166359220208	-0.5532913907102232	0.0	1.0641440655776122	-0.5087049755501646	0.0	0.9853814971058859	-0.5693749215654398	0.0	1.0265540006611111	-0.5652414498934089	0.0	1.0696014829299776	-0.5255555728632445	0.0
62	2.0754985754985755	0.9160151128200565	-0.7028537729736908	0.0	0.9045785731079172	-0.7025740707095078	0.0	0.964278001001033	-0.7933855242130589	0.0	0.9483147329977604	-0.8965918500653186	0.0	0.9895075752200473	-0.9055216423562343	0.0	0.9795909809918327	-0.9062387651977231	0.0	0.938172900495657	-0.9011683465749059	0.0	0.9309955760779575	-0.7027697794163332	0.0	0.9930553920809094	-0.7825601185931963	0.0	0.9832409837266264	-0.8796653133663866	0.0	1.0112721520763144	-0.8941248126141489	0.0	1.0132593003271602	-0.8927422488424946	0.0	0.9720673588066471	-0.8968292619036464	0.0	0.9732698665459899	-0.5627233726222486	0.0	1.038010188079773	-0.51158266448716	0.0	1.023331710034906	-0.545741677722069	0.0	0.9530486415171868	-0.5646424187168039	0.0	1.0010419886590858	-0.5520985724483437	0.0	1.0583236883253382	-0.5060927435114182	0.0	0.9759123472924082	-0.5720508612325913	0.0	1.0165720747251559	-0.5644715404843428	0.0	1.0634356090172825	-0.5175119083124373	0.0
63	2.108974358974359	0.9062103797026094	-0.6894993489673777	0.0	0.894590711523042	-0.6892440078568598	0.0	0.9640873124287304	-0.773774173130436	0.0	0.944353501912976	-0.8800271068616818	0.0	0.9867066198572857	-0.890986425123976	0.0	0.9775415686848299	-0.892225732780711	0.0	0.933923689583014	-0.8869515404318866	0.0	0.9224600010891514	-0.6888747715501093	0.0	0.9923381962396037	-0.7608799240697854	0.0	0.9782859636137639	-0.8598995571912009	0.0	1.0105218360453296	-0.8750925772727646	0.0	1.0111734361553149	-0.872877205175064	0.0	0.9682178511522436	-0.8764802432784665	0.0	0.9651824627128266	-0.5541478584877307	0.0	1.0306965263938015	-0.503286467587222	0.0	1.0160707460819478	-0.5372183039893773	0.0	0.9449633964272713	-0.5554395636102955	0.0	0.9923386987980207	-0.5450950411030869	0.0	1.052497789348727	-0.5051172780300074	0.0	0.9664913040009958	-0.5624945112075923	0.0	1.0040772050293372	-0.5582869349277315	0.0	1.0573391129992467	-0.5102501539473331	0.0
64	2.1424501424501425	0.895104989241377	-0.6660600385683636	0.0	0.8841053049950816	-0.6659439887441008	0.0	0.9626006062514467	-0.7450678530325479	0.0	0.9414715095271826	-0.8553222353855078	0.0	0.9852451612370854	-0.8685697820293904	0.0	0.976263456146828	-0.870631575947054	0.0	0.9307687948651581	-0.8648123041899864	0.0	0.9119865334356637	-0.6646831269846918	0.0	0.9886440746219295	-0.7298932505661525	0.0	0.9685727474718612	-0.8304104169225929	0.0	1.004899202886214	-0.8462214980627042	0.0	1.003655221115711	-0.8432711132969238	0.0	0.9582495162760544	-0.8456117349668736	0.0	0.9573385015618847	-0.5358347265774286	0.0	1.023841738094566	-0.486526324521079	0.0	1.008970826032326	-0.5204212930321453	0.0	0.93782780607726	-0.5359895344133344	0.0	0.9819789895235933	-0.5315924615721368	0.0	1.0454415983569254	-0.5021936659936457	0.0	0.9570779709996977	-0.5424580251422034	0.0	0.9925647643977021	-0.5443549669997995	0.0	1.0515957819329393	-0.5012516324240843	0.0
65	2.175925925925926	0.8843286341126851	-0.637048402925006	0.0	0.8742044562227916	-0.6372211693015161	0.0	0.9586500673767148	-0.7132548108803263	0.0	0.93951428883604	-0.8278100158921273	0.0	0.9845273303358499	-0.8440330371931756	0.0	0.9750933356752425	-0.8468949307047617	0.0	0.9287828149025608	-0.8394185610457101	0.0	0.9014916670851905	-0.6349050819329717	0.0	0.9822748228230144	-0.6954319546661611	0.0	0.9539965359912838	-0.7954924054440909	0.0	0.9927039248975505	-0.8127157908240594	0.0	0.9896998897624923	-0.8093267077840708	0.0	0.942508195998689	-0.8089306285435431	0.0	0.9488999142712736	-0.5106146687918333	0.0	1.0165249096634805	-0.4634807011463411	0.0	1.001173147909424	-0.49772810359353103	0.0	0.9304133973043599	-0.5092143576712449	0.0	0.9692790579901169	-0.5116597638749921	0.0	1.035308710329041	-0.49383288016898924	0.0	0.9474739014934656	-0.5151353125246879	0.0	0.9833539846357856	-0.5217504892563475	0.0	1.044833311205277	-0.4877503278182742	0.0
66	2.2094017094017095	0.8750143303440711	-0.6065401448587304	0.0	0.865554815097385	-0.6070756620508114	0.0	0.9515038033542732	-0.6832367112363942	0.0	0.937739010638701	-0.802040152755454	0.0	0.9830998411926499	-0.8227425541898625	0.0	0.9729291741200564	-0.8260052920860456	0.0	0.9273606581345684	-0.8150268976241336	0.0	0.892249957974611	-0.6038577339452879	0.0	0.9733459867128275	-0.6628438840378302	0.0	0.9349140597446838	-0.7599950790094046	0.0	0.9731159096863257	-0.7800268503717355	0.0	0.9689216786520098	-0.7765527653098498	0.0	0.9220698122393046	-0.7715110411013832	0.0	0.9394463348972603	-0.4816562559352943	0.0	1.0083294081569107	-0.4368411987897956	0.0	0.9920615923809929	-0.4720414471241445	0.0	0.9219688854750709	-0.478499832186273	0.0	0.9542680403513326	-0.48645316765812	0.0	1.0211158626095003	-0.4782304335896634	0.0	0.9373208661191856	-0.48415693718974456	0.0	0.9741345913589126	-0.49267354338961505	0.0	1.0351239186826373	-0.4680297035854287	0.0
67	2.242877492877493	0.8675361155041766	-0.5775412403552219	0.0	0.8584480118463889	-0.5783699928363711	0.0	0.9413871184238028	-0.657557781949223	0.0	0.9352630049982325	-0.7804043062251104	0.0	0.9796965565397265	-0.8072194301912691	0.0	0.9688227743336243	-0.8102908646856142	0.0	0.9256100359034333	-0.793989142526236	0.0	0.8845179877208862	-0.5746744878435593	0.0	0.9617046467261569	-0.6357519325321133	0.0	0.9122761692096304	-0.7280467294170777	0.0	0.9466112372910703	-0.7523537180946327	0.0	0.9419992304271956	-0.7490439792193392	0.0	0.8984047893081314	-0.7376515710433017	0.0	0.9291251551506552	-0.45174891516653104	0.0	0.9992118456851555	-0.409094803356752	0.0	0.9815491137786501	-0.44582313178825683	0.0	0.9124393448357978	-0.4470653905110573	0.0	0.9378793169153279	-0.4579817103853719	0.0	1.0030735767450394	-0.4559397036007554	0.0	0.926451754782789	-0.452769358758457	0.0	0.9614824030088094	-0.46093867619586104	0.0	1.0210186143283548	-0.4421038895527088	0.0
68	2.2763532763532766	0.861611721722275	-0.5518341786421161	0.0	0.8529381287011638	-0.552759050621428	0.0	0.9294028145546067	-0.6368410789196873	0.0	0.9315277882195837	-0.7632631376423548	0.0	0.9739816065091453	-0.7969783251536773	0.0	0.962620858111436	-0.7993722272254109	0.0	0.9227934271423757	-0.7768013856904584	0.0	0.8776226324603129	-0.5490784421176983	0.0	0.9471071331896455	-0.6156077200549587	0.0	0.8874275054651728	-0.7022523506674931	0.0	0.9149583407628458	-0.7316952918029827	0.0	0.9106542064860736	-0.7285971536582952	0.0	0.8729870440235151	-0.7101440453272342	0.0	0.9184919608844025	-0.42308676058983896	0.0	0.989453993744277	-0.3823138200903999	0.0	0.9702298593753842	-0.4208314280276459	0.0	0.9023595367361379	-0.4175451264002335	0.0	0.9213220425752693	-0.4286602558846871	0.0	0.9821754854946706	-0.42934485387366506	0.0	0.9150895392442832	-0.4233924157296668	0.0	0.9441193619462926	-0.42975538660504037	0.0	1.002089805519771	-0.41145371608616027	0.0
